g Body_01
v 0.275 -0.113909 -0.010008
v 0.275 -0.113909 0.034992
v 0.275 -0.275 0.034992
v 0.275 -0.275 -0.010008
v 0.113909 -0.275 0.034992
v 0.113909 -0.275 -0.010008
v -1.19696e-16 -0.388909 0.034992
v -1.19696e-16 -0.388909 -0.010008
v -0.113909 -0.275 0.034992
v -0.113909 -0.275 -0.010008
v -0.275 -0.275 0.034992
v -0.275 -0.275 -0.010008
v -0.275 -0.113909 0.034992
v -0.275 -0.113909 -0.010008
v -0.388909 1.2878e-16 0.034992
v -0.388909 1.34291e-16 -0.010008
v -0.275 0.113909 0.034992
v -0.275 0.113909 -0.010008
v -0.275 0.275 -0.010008
v -0.275 0.275 0.034992
v -0.113909 0.275 0.034992
v -0.113909 0.275 -0.010008
v 1.02349e-16 0.388909 0.034992
v 1.02349e-16 0.388909 -0.010008
v 0.113909 0.275 0.034992
v 0.113909 0.275 -0.010008
v 0.275 0.275 0.034992
v 0.275 0.275 -0.010008
v 0.275 0.113909 0.034992
v 0.275 0.113909 -0.010008
v 0.388909 7.3269e-17 0.034992
v 0.388909 7.87799e-17 -0.010008
v 0.350018 -1.7102e-16 -0.010008
v 0.2475 0.102518 -0.010008
v 0.2475 0.2475 -0.010008
v 0.2475 -0.2475 -0.010008
v 0.2475 -0.102518 -0.010008
v -0.2475 -0.2475 -0.010008
v -0.102518 -0.2475 -0.010008
v -1.66533e-16 -0.350018 -0.010008
v -0.350018 -3.22424e-17 -0.010008
v -0.2475 -0.102518 -0.010008
v 0.102518 0.2475 -0.010008
v 1.35815e-16 0.350018 -0.010008
v -0.2475 0.2475 -0.010008
v -0.2475 0.102518 -0.010008
v 0.102518 -0.2475 -0.010008
v -0.102518 0.2475 -0.010008
v 0.2475 -0.2475 0.034992
v 0.102518 -0.2475 0.034992
v -1.66533e-16 -0.350018 0.034992
v 0.350018 -1.48776e-16 0.034992
v 0.2475 -0.102518 0.034992
v 0.2475 0.2475 0.034992
v 0.2475 0.102518 0.034992
v 1.35815e-16 0.350018 0.034992
v 0.102518 0.2475 0.034992
v -0.2475 0.2475 0.034992
v -0.102518 0.2475 0.034992
v -0.350018 -3.77533e-17 0.034992
v -0.2475 0.102518 0.034992
v -0.2475 -0.2475 0.034992
v -0.2475 -0.102518 0.034992
v -0.102518 -0.2475 0.034992
vn 1 -3.02788e-16 -3.70808e-32
vn -2.01859e-16 -1 -1.22465e-16
vn 0.707107 -0.707107 -8.65956e-17
vn -0.707107 -0.707107 -8.65956e-17
vn -2.01859e-16 -1 -1.22465e-16
vn -1 5.04647e-16 6.18014e-32
vn -0.707107 -0.707107 -8.65956e-17
vn -0.707107 0.707107 8.65956e-17
vn -1 5.04647e-16 6.18014e-32
vn 1.00929e-16 1 1.22465e-16
vn -0.707107 0.707107 8.65956e-17
vn 0.707107 0.707107 8.65956e-17
vn 1.00929e-16 1 1.22465e-16
vn 1 -3.02788e-16 -3.70808e-32
vn 0.707107 0.707107 8.65956e-17
vn 0.707107 -0.707107 -8.65956e-17
vn 0 1.22465e-16 -1
vn -0 -1.22465e-16 1
vn -1 2.80359e-16 3.43341e-32
vn 2.24287e-16 1 1.22465e-16
vn -0.707107 0.707107 8.65956e-17
vn 0.707107 0.707107 8.65956e-17
vn 2.24287e-16 1 1.22465e-16
vn 1 -3.92503e-16 -4.80678e-32
vn 0.707107 0.707107 8.65956e-17
vn 0.707107 -0.707107 -8.65956e-17
vn 1 -3.92503e-16 -4.80678e-32
vn -1.12144e-16 -1 -1.22465e-16
vn 0.707107 -0.707107 -8.65956e-17
vn -0.707107 -0.707107 -8.65956e-17
vn -1.12144e-16 -1 -1.22465e-16
vn -1 2.80359e-16 3.43341e-32
vn -0.707107 -0.707107 -8.65956e-17
vn -0.707107 0.707107 8.65956e-17
vt 0.113909 -1.39498e-17
vt 0.113909 -0.045
vt 0.275 -0.045
vt 0.275 2.18334e-17
vt -0.275 -6.79816e-33
vt -0.275 -0.045
vt -0.113909 -0.045
vt -0.113909 0
vt 0.113909 -9.864e-18
vt 0.113909 -0.045
vt 0.275 -0.045
vt 0.275 -2.38138e-17
vt -0.275 -2.38138e-17
vt -0.275 -0.045
vt -0.113909 -0.045
vt -0.113909 -9.864e-18
vt 0.113909 0
vt 0.113909 -0.045
vt 0.275 -0.045
vt 0.275 6.79816e-33
vt -0.275 -0.045
vt -0.113909 -0.045
vt -0.113909 -1.39498e-17
vt -0.275 2.18334e-17
vt 0.113909 -4.56472e-17
vt 0.113909 -0.045
vt 0.275 -0.045
vt 0.275 -3.16974e-17
vt -0.113909 -0.045
vt -0.113909 -9.864e-18
vt -0.275 -2.38138e-17
vt -0.275 -0.045
vt 0.275 3.36778e-17
vt 0.113909 1.39498e-17
vt 0.113909 -0.045
vt 0.275 -0.045
vt -0.275 6.79816e-33
vt -0.275 -0.045
vt -0.113909 -0.045
vt -0.113909 0
vt 0.113909 -0.045
vt 0.275 -0.045
vt 0.275 -3.16974e-17
vt 0.113909 9.864e-18
vt -0.113909 -0.045
vt -0.113909 9.864e-18
vt -0.275 -3.16974e-17
vt -0.275 -0.045
vt 0.113909 0
vt 0.113909 -0.045
vt 0.275 -0.045
vt 0.275 0
vt -0.275 3.36778e-17
vt -0.275 -0.045
vt -0.113909 -0.045
vt -0.113909 1.39498e-17
vt 0.113909 -0.045
vt 0.275 -0.045
vt 0.275 -2.38138e-17
vt 0.113909 -9.864e-18
vt -0.113909 -4.56472e-17
vt -0.275 -3.16974e-17
vt -0.275 -0.045
vt -0.113909 -0.045
vt 0.275 -0.113909
vt 0.388909 -1.11022e-16
vt 0.350018 1.38778e-16
vt 0.2475 -0.102518
vt 0.2475 -0.2475
vt 0.275 0.113909
vt 0.275 0.275
vt 0.2475 0.2475
vt 0.2475 0.102518
vt -0.113909 0.275
vt -0.275 0.275
vt -0.2475 0.2475
vt -0.102518 0.2475
vt -1.5786e-16 0.350018
vt -0.275 0.113909
vt -0.388909 -1.66533e-16
vt -0.350018 -0
vt -0.2475 0.102518
vt 0.113909 -0.275
vt 0.275 -0.275
vt 0.102518 -0.2475
vt 1.44488e-16 -0.350018
vt -1.11022e-16 0.388909
vt -0.275 -0.113909
vt -0.275 -0.275
vt -0.2475 -0.2475
vt -0.2475 -0.102518
vt 1.11022e-16 -0.388909
vt 0.113909 0.275
vt 0.102518 0.2475
vt -0.113909 -0.275
vt -0.102518 -0.2475
vt 0.113909 0.275
vt 0.275 0.275
vt 0.2475 0.2475
vt 0.102518 0.2475
vt -1.5786e-16 0.350018
vt 0.275 0.113909
vt 0.388909 -1.11022e-16
vt 0.350018 1.11022e-16
vt 0.2475 0.102518
vt -1.11022e-16 0.388909
vt 0.275 -0.113909
vt 0.275 -0.275
vt 0.2475 -0.2475
vt 0.2475 -0.102518
vt 0.113909 -0.275
vt 1.11022e-16 -0.388909
vt 1.44488e-16 -0.350018
vt 0.102518 -0.2475
vt -0.113909 -0.275
vt -0.275 -0.275
vt -0.2475 -0.2475
vt -0.102518 -0.2475
vt -0.275 -0.113909
vt -0.388909 -1.66533e-16
vt -0.350018 -0
vt -0.2475 -0.102518
vt -0.275 0.113909
vt -0.275 0.275
vt -0.2475 0.2475
vt -0.2475 0.102518
vt -0.113909 0.275
vt -0.102518 0.2475
vt 0.102518 -0.115
vt 0.2475 -0.115
vt 0.2475 -0.16
vt 0.102518 -0.16
vt -0.2475 -0.16
vt -0.2475 -0.115
vt -0.102518 -0.115
vt -0.102518 -0.16
vt 0.2475 -0.16
vt 0.102518 -0.16
vt 0.102518 -0.115
vt 0.2475 -0.115
vt -0.2475 -0.16
vt -0.2475 -0.115
vt -0.102518 -0.115
vt -0.102518 -0.16
vt 0.102518 -0.16
vt 0.102518 -0.115
vt 0.2475 -0.115
vt 0.2475 -0.16
vt -0.2475 -0.16
vt -0.2475 -0.115
vt -0.102518 -0.115
vt -0.102518 -0.16
vt 0.102518 -0.115
vt 0.2475 -0.115
vt 0.2475 -0.16
vt 0.102518 -0.16
vt -0.2475 -0.16
vt -0.2475 -0.115
vt -0.102518 -0.115
vt -0.102518 -0.16
vt 0.2475 -0.115
vt 0.2475 -0.16
vt 0.102518 -0.16
vt 0.102518 -0.115
vt -0.2475 -0.16
vt -0.2475 -0.115
vt -0.102518 -0.115
vt -0.102518 -0.16
vt 0.102518 -0.16
vt 0.102518 -0.115
vt 0.2475 -0.115
vt 0.2475 -0.16
vt -0.102518 -0.16
vt -0.2475 -0.16
vt -0.2475 -0.115
vt -0.102518 -0.115
vt 0.102518 -0.16
vt 0.102518 -0.115
vt 0.2475 -0.115
vt 0.2475 -0.16
vt -0.2475 -0.115
vt -0.102518 -0.115
vt -0.102518 -0.16
vt -0.2475 -0.16
vt 0.102518 -0.16
vt 0.102518 -0.115
vt 0.2475 -0.115
vt 0.2475 -0.16
vt -0.102518 -0.16
vt -0.2475 -0.16
vt -0.2475 -0.115
vt -0.102518 -0.115
f 1/1/1 2/2/1 3/3/1
f 3/3/1 4/4/1 1/1/1
f 4/5/2 3/6/2 5/7/2
f 5/7/2 6/8/2 4/5/2
f 6/9/3 5/10/3 7/11/3
f 7/11/3 8/12/3 6/9/3
f 8/13/4 7/14/4 9/15/4
f 9/15/4 10/16/4 8/13/4
f 10/17/5 9/18/5 11/19/5
f 11/19/5 12/20/5 10/17/5
f 11/21/6 13/22/6 14/23/6
f 14/23/6 12/24/6 11/21/6
f 14/25/7 13/26/7 15/27/7
f 15/27/7 16/28/7 14/25/7
f 17/29/8 18/30/8 16/31/8
f 16/31/8 15/32/8 17/29/8
f 19/33/9 18/34/9 17/35/9
f 17/35/9 20/36/9 19/33/9
f 19/37/10 20/38/10 21/39/10
f 21/39/10 22/40/10 19/37/10
f 21/41/11 23/42/11 24/43/11
f 24/43/11 22/44/11 21/41/11
f 25/45/12 26/46/12 24/47/12
f 24/47/12 23/48/12 25/45/12
f 26/49/13 25/50/13 27/51/13
f 27/51/13 28/52/13 26/49/13
f 28/53/14 27/54/14 29/55/14
f 29/55/14 30/56/14 28/53/14
f 29/57/15 31/58/15 32/59/15
f 32/59/15 30/60/15 29/57/15
f 1/61/16 32/62/16 31/63/16
f 31/63/16 2/64/16 1/61/16
f 30/65/17 32/66/17 33/67/17
f 30/65/17 34/68/17 35/69/17
f 1/70/17 4/71/17 36/72/17
f 1/70/17 37/73/17 33/67/17
f 10/74/17 12/75/17 38/76/17
f 10/74/17 39/77/17 40/78/17
f 14/79/17 16/80/17 41/81/17
f 14/79/17 42/82/17 38/76/17
f 26/83/17 28/84/17 35/69/17
f 26/83/17 43/85/17 44/86/17
f 35/69/17 28/84/17 30/65/17
f 33/67/17 32/66/17 1/70/17
f 40/78/17 8/87/17 10/74/17
f 38/76/17 12/75/17 14/79/17
f 18/88/17 19/89/17 45/90/17
f 18/88/17 46/91/17 41/81/17
f 44/86/17 24/92/17 26/83/17
f 36/72/17 37/73/17 1/70/17
f 6/93/17 8/87/17 40/78/17
f 6/93/17 47/94/17 36/72/17
f 41/81/17 42/82/17 14/79/17
f 41/81/17 16/80/17 18/88/17
f 22/95/17 24/92/17 44/86/17
f 22/95/17 48/96/17 45/90/17
f 33/67/17 34/68/17 30/65/17
f 36/72/17 4/71/17 6/93/17
f 45/90/17 46/91/17 18/88/17
f 45/90/17 19/89/17 22/95/17
f 40/78/17 47/94/17 6/93/17
f 44/86/17 48/96/17 22/95/17
f 38/76/17 39/77/17 10/74/17
f 35/69/17 43/85/17 26/83/17
f 5/97/18 3/98/18 49/99/18
f 5/97/18 50/100/18 51/101/18
f 2/102/18 31/103/18 52/104/18
f 2/102/18 53/105/18 49/99/18
f 51/101/18 7/106/18 5/97/18
f 49/99/18 3/98/18 2/102/18
f 29/107/18 27/108/18 54/109/18
f 29/107/18 55/110/18 52/104/18
f 52/104/18 53/105/18 2/102/18
f 52/104/18 31/103/18 29/107/18
f 25/111/18 23/112/18 56/113/18
f 25/111/18 57/114/18 54/109/18
f 54/109/18 55/110/18 29/107/18
f 54/109/18 27/108/18 25/111/18
f 21/115/18 20/116/18 58/117/18
f 21/115/18 59/118/18 56/113/18
f 56/113/18 57/114/18 25/111/18
f 56/113/18 23/112/18 21/115/18
f 17/119/18 15/120/18 60/121/18
f 17/119/18 61/122/18 58/117/18
f 58/117/18 59/118/18 21/115/18
f 58/117/18 20/116/18 17/119/18
f 13/123/18 11/124/18 62/125/18
f 13/123/18 63/126/18 60/121/18
f 60/121/18 61/122/18 17/119/18
f 60/121/18 15/120/18 13/123/18
f 9/127/18 7/106/18 51/101/18
f 9/127/18 64/128/18 62/125/18
f 62/125/18 63/126/18 13/123/18
f 62/125/18 11/124/18 9/127/18
f 51/101/18 64/128/18 9/127/18
f 49/99/18 50/100/18 5/97/18
f 37/129/19 36/130/19 49/131/19
f 49/131/19 53/132/19 37/129/19
f 49/133/20 36/134/20 47/135/20
f 47/135/20 50/136/20 49/133/20
f 51/137/21 50/138/21 47/139/21
f 47/139/21 40/140/21 51/137/21
f 51/141/22 40/142/22 39/143/22
f 39/143/22 64/144/22 51/141/22
f 64/145/23 39/146/23 38/147/23
f 38/147/23 62/148/23 64/145/23
f 62/149/24 38/150/24 42/151/24
f 42/151/24 63/152/24 62/149/24
f 42/153/25 41/154/25 60/155/25
f 60/155/25 63/156/25 42/153/25
f 60/157/26 41/158/26 46/159/26
f 46/159/26 61/160/26 60/157/26
f 45/161/27 58/162/27 61/163/27
f 61/163/27 46/164/27 45/161/27
f 58/165/28 45/166/28 48/167/28
f 48/167/28 59/168/28 58/165/28
f 59/169/29 48/170/29 44/171/29
f 44/171/29 56/172/29 59/169/29
f 57/173/30 56/174/30 44/175/30
f 44/175/30 43/176/30 57/173/30
f 57/177/31 43/178/31 35/179/31
f 35/179/31 54/180/31 57/177/31
f 35/181/32 34/182/32 55/183/32
f 55/183/32 54/184/32 35/181/32
f 55/185/33 34/186/33 33/187/33
f 33/187/33 52/188/33 55/185/33
f 53/189/34 52/190/34 33/191/34
f 33/191/34 37/192/34 53/189/34
g Body_02
v -0.283514 -1.53805e-18 0.011242
v -0.200475 -0.0830395 0.011242
v -0.200475 -0.0830395 0.033742
v -0.283514 -4.29351e-18 0.033742
v -0.200475 0.0830395 0.033742
v -0.200475 0.0830395 0.011242
v -0.200475 0.200475 0.033742
v -0.200475 0.200475 0.011242
v -0.0830395 0.200475 0.033742
v -0.0830395 0.200475 0.011242
v 1.01948e-16 0.283514 0.033742
v 1.01948e-16 0.283514 0.011242
v 0.0830395 0.200475 0.033742
v 0.0830395 0.200475 0.011242
v 0.200475 0.200475 0.033742
v 0.200475 0.200475 0.011242
v 0.200475 0.0830395 0.033742
v 0.200475 0.0830395 0.011242
v 0.283514 -4.53934e-16 0.033742
v 0.283514 -4.51178e-16 0.011242
v 0.200475 -0.0830395 0.033742
v 0.200475 -0.0830395 0.011242
v 0.200475 -0.200475 0.033742
v 0.200475 -0.200475 0.011242
v 0.0830395 -0.200475 0.033742
v 0.0830395 -0.200475 0.011242
v -2.52576e-16 -0.283514 0.033742
v -2.52576e-16 -0.283514 0.011242
v -0.0830395 -0.200475 0.033742
v -0.0830395 -0.200475 0.011242
v -0.200475 -0.200475 0.033742
v -0.200475 -0.200475 0.011242
v 0.180428 0.180427 0.011242
v 0.0747355 0.180427 0.011242
v 1.59632e-16 0.255163 0.011242
v 0.255163 -3.51258e-16 0.011242
v 0.180428 0.0747355 0.011242
v 0.180427 -0.180428 0.011242
v 0.180427 -0.0747355 0.011242
v -2.02616e-16 -0.255163 0.011242
v 0.0747355 -0.180428 0.011242
v -0.180428 -0.180427 0.011242
v -0.0747355 -0.180428 0.011242
v -0.255163 -5.14981e-17 0.011242
v -0.180428 -0.0747355 0.011242
v -0.180428 0.180427 0.011242
v -0.180428 0.0747355 0.011242
v -0.0747355 0.180427 0.011242
v 0.180427 -0.180428 0.033742
v 0.0747355 -0.180428 0.033742
v -2.02616e-16 -0.255163 0.033742
v 0.255163 -3.54014e-16 0.033742
v 0.180427 -0.0747355 0.033742
v 0.180428 0.180427 0.033742
v 0.180428 0.0747355 0.033742
v 1.59632e-16 0.255163 0.033742
v 0.0747355 0.180427 0.033742
v -0.180428 0.180427 0.033742
v -0.0747355 0.180427 0.033742
v -0.255163 -5.42535e-17 0.033742
v -0.180428 0.0747355 0.033742
v -0.180428 -0.180427 0.033742
v -0.180428 -0.0747355 0.033742
v -0.0747355 -0.180428 0.033742
vn -0.707107 -0.707107 -8.65956e-17
vn -0.707107 0.707107 8.65956e-17
vn -1 3.1151e-16 3.8149e-32
vn 3.1151e-16 1 1.22465e-16
vn -0.707107 0.707107 8.65956e-17
vn 0.707107 0.707107 8.65956e-17
vn 3.1151e-16 1 1.22465e-16
vn 1 -3.1151e-16 -3.8149e-32
vn 0.707107 0.707107 8.65956e-17
vn 0.707107 -0.707107 -8.65956e-17
vn 1 -3.1151e-16 -3.8149e-32
vn -2.49208e-16 -1 -1.22465e-16
vn 0.707107 -0.707107 -8.65956e-17
vn -0.707107 -0.707107 -8.65956e-17
vn -2.49208e-16 -1 -1.22465e-16
vn -1 3.1151e-16 3.8149e-32
vn 0 1.22465e-16 -1
vn -0 -1.22465e-16 1
vn -0.707107 0.707107 8.65956e-17
vn 0.707107 0.707107 8.65956e-17
vn 4.84572e-16 1 1.22465e-16
vn 1 -6.23021e-16 -7.6298e-32
vn 0.707107 0.707107 8.65956e-17
vn 0.707107 -0.707107 -8.65956e-17
vn 1 -6.23021e-16 -7.6298e-32
vn -4.15347e-16 -1 -1.22465e-16
vn 0.707107 -0.707107 -8.65956e-17
vn -0.707107 -0.707107 -8.65956e-17
vn -4.15347e-16 -1 -1.22465e-16
vn -1 4.84572e-16 5.93429e-32
vn -0.707107 -0.707107 -8.65956e-17
vn -0.707107 0.707107 8.65956e-17
vn -1 4.84572e-16 5.93429e-32
vn 4.84572e-16 1 1.22465e-16
vt 0.200475 1.73603e-17
vt 0.0830395 7.19085e-18
vt 0.0830395 -0.0225
vt 0.200475 -0.0225
vt -0.0830395 -0.0225
vt -0.0830395 -7.19085e-18
vt -0.200475 -1.73603e-17
vt -0.200475 -0.0225
vt 0.0830395 1.01694e-17
vt 0.0830395 -0.0225
vt 0.200475 -0.0225
vt 0.200475 2.45511e-17
vt -0.200475 6.79816e-33
vt -0.200475 -0.0225
vt -0.0830395 -0.0225
vt -0.0830395 6.79816e-33
vt 0.0830395 7.19085e-18
vt 0.0830395 -0.0225
vt 0.200475 -0.0225
vt 0.200475 1.73603e-17
vt -0.200475 1.73603e-17
vt -0.200475 -0.0225
vt -0.0830395 -0.0225
vt -0.0830395 7.19085e-18
vt 0.0830395 -6.79816e-33
vt 0.0830395 -0.0225
vt 0.200475 -0.0225
vt 0.200475 -6.79816e-33
vt -0.200475 2.45511e-17
vt -0.200475 -0.0225
vt -0.0830395 -0.0225
vt -0.0830395 1.01694e-17
vt 0.0830395 -0.0225
vt 0.200475 -0.0225
vt 0.200475 -1.73603e-17
vt 0.0830395 -7.19085e-18
vt -0.200475 1.73603e-17
vt -0.200475 -0.0225
vt -0.0830395 -0.0225
vt -0.0830395 7.19085e-18
vt 0.200475 -0.0225
vt 0.200475 3.096e-17
vt 0.0830395 -1.01694e-17
vt 0.0830395 -0.0225
vt -0.200475 -6.79816e-33
vt -0.200475 -0.0225
vt -0.0830395 -0.0225
vt -0.0830395 -3.39908e-33
vt 0.0830395 4.83203e-17
vt 0.0830395 -0.0225
vt 0.200475 -0.0225
vt 0.200475 3.81509e-17
vt -0.200475 3.81509e-17
vt -0.200475 -0.0225
vt -0.0830395 -0.0225
vt -0.0830395 4.83203e-17
vt 0.0830395 0
vt 0.0830395 -0.0225
vt 0.200475 -0.0225
vt 0.200475 6.79816e-33
vt -0.200475 -0.0225
vt -0.0830395 -0.0225
vt -0.0830395 -1.01694e-17
vt -0.200475 3.096e-17
vt 0.0830395 -0.200475
vt 0.200475 -0.200475
vt 0.180428 -0.180427
vt 0.0747355 -0.180427
vt 1.62408e-16 -0.255163
vt 0.200475 -0.0830395
vt 0.283514 3.9968e-16
vt 0.255163 2.9976e-16
vt 0.180428 -0.0747355
vt 1.04724e-16 -0.283514
vt 0.200475 0.0830395
vt 0.200475 0.200475
vt 0.180427 0.180428
vt 0.180427 0.0747355
vt 0.0830395 0.200475
vt -2.498e-16 0.283514
vt -1.9984e-16 0.255163
vt 0.0747355 0.180428
vt -0.0830395 0.200475
vt -0.200475 0.200475
vt -0.180428 0.180427
vt -0.0747355 0.180427
vt -0.200475 0.0830395
vt -0.283514 -4.996e-17
vt -0.255163 -0
vt -0.180428 0.0747355
vt -0.200475 -0.0830395
vt -0.200475 -0.200475
vt -0.180428 -0.180428
vt -0.180428 -0.0747355
vt -0.0830395 -0.200475
vt -0.0747355 -0.180427
vt 0.0830395 0.200475
vt 0.200475 0.200475
vt 0.180427 0.180428
vt 0.0747355 0.180428
vt -1.9984e-16 0.255163
vt 0.200475 0.0830395
vt 0.283514 3.9968e-16
vt 0.255163 2.9976e-16
vt 0.180427 0.0747355
vt -2.498e-16 0.283514
vt 0.200475 -0.0830395
vt 0.200475 -0.200475
vt 0.180428 -0.180427
vt 0.180428 -0.0747355
vt 0.0830395 -0.200475
vt 1.04724e-16 -0.283514
vt 1.62408e-16 -0.255163
vt 0.0747355 -0.180427
vt -0.0830395 -0.200475
vt -0.200475 -0.200475
vt -0.180428 -0.180428
vt -0.0747355 -0.180427
vt -0.200475 -0.0830395
vt -0.283514 -4.996e-17
vt -0.255163 -0
vt -0.180428 -0.0747355
vt -0.200475 0.0830395
vt -0.200475 0.200475
vt -0.180428 0.180427
vt -0.180428 0.0747355
vt -0.0830395 0.200475
vt -0.0747355 0.180427
vt 0.180428 -0.126
vt 0.0747355 -0.126
vt 0.0747355 -0.1035
vt 0.180428 -0.1035
vt -0.180428 -0.1035
vt -0.0747355 -0.1035
vt -0.0747355 -0.126
vt -0.180428 -0.126
vt 0.0747355 -0.126
vt 0.0747355 -0.1035
vt 0.180428 -0.1035
vt 0.180428 -0.126
vt -0.180427 -0.1035
vt -0.0747355 -0.1035
vt -0.0747355 -0.126
vt -0.180427 -0.126
vt 0.180427 -0.1035
vt 0.180427 -0.126
vt 0.0747355 -0.126
vt 0.0747355 -0.1035
vt -0.180428 -0.1035
vt -0.0747355 -0.1035
vt -0.0747355 -0.126
vt -0.180428 -0.126
vt 0.0747355 -0.1035
vt 0.180427 -0.1035
vt 0.180427 -0.126
vt 0.0747355 -0.126
vt -0.180428 -0.126
vt -0.180428 -0.1035
vt -0.0747355 -0.1035
vt -0.0747355 -0.126
vt 0.180428 -0.126
vt 0.0747355 -0.126
vt 0.0747355 -0.1035
vt 0.180428 -0.1035
vt -0.180427 -0.126
vt -0.180427 -0.1035
vt -0.0747355 -0.1035
vt -0.0747355 -0.126
vt 0.0747355 -0.126
vt 0.0747355 -0.1035
vt 0.180428 -0.1035
vt 0.180428 -0.126
vt -0.0747355 -0.1035
vt -0.0747355 -0.126
vt -0.180428 -0.126
vt -0.180427 -0.1035
vt 0.0747355 -0.126
vt 0.0747355 -0.1035
vt 0.180428 -0.1035
vt 0.180428 -0.126
vt -0.180428 -0.1035
vt -0.0747355 -0.1035
vt -0.0747355 -0.126
vt -0.180428 -0.126
vt 0.180427 -0.126
vt 0.0747355 -0.126
vt 0.0747355 -0.1035
vt 0.180427 -0.1035
vt -0.180428 -0.126
vt -0.180428 -0.1035
vt -0.0747355 -0.1035
vt -0.0747355 -0.126
f 65/193/35 66/194/35 67/195/35
f 67/195/35 68/196/35 65/193/35
f 69/197/36 70/198/36 65/199/36
f 65/199/36 68/200/36 69/197/36
f 70/201/37 69/202/37 71/203/37
f 71/203/37 72/204/37 70/201/37
f 72/205/38 71/206/38 73/207/38
f 73/207/38 74/208/38 72/205/38
f 74/209/39 73/210/39 75/211/39
f 75/211/39 76/212/39 74/209/39
f 76/213/40 75/214/40 77/215/40
f 77/215/40 78/216/40 76/213/40
f 78/217/41 77/218/41 79/219/41
f 79/219/41 80/220/41 78/217/41
f 80/221/42 79/222/42 81/223/42
f 81/223/42 82/224/42 80/221/42
f 81/225/43 83/226/43 84/227/43
f 84/227/43 82/228/43 81/225/43
f 84/229/44 83/230/44 85/231/44
f 85/231/44 86/232/44 84/229/44
f 87/233/45 88/234/45 86/235/45
f 86/235/45 85/236/45 87/233/45
f 88/237/46 87/238/46 89/239/46
f 89/239/46 90/240/46 88/237/46
f 90/241/47 89/242/47 91/243/47
f 91/243/47 92/244/47 90/241/47
f 92/245/48 91/246/48 93/247/48
f 93/247/48 94/248/48 92/245/48
f 94/249/49 93/250/49 95/251/49
f 95/251/49 96/252/49 94/249/49
f 95/253/50 67/254/50 66/255/50
f 66/255/50 96/256/50 95/253/50
f 78/257/51 80/258/51 97/259/51
f 78/257/51 98/260/51 99/261/51
f 82/262/51 84/263/51 100/264/51
f 82/262/51 101/265/51 97/259/51
f 99/261/51 76/266/51 78/257/51
f 97/259/51 80/258/51 82/262/51
f 86/267/51 88/268/51 102/269/51
f 86/267/51 103/270/51 100/264/51
f 100/264/51 101/265/51 82/262/51
f 100/264/51 84/263/51 86/267/51
f 90/271/51 92/272/51 104/273/51
f 90/271/51 105/274/51 102/269/51
f 102/269/51 103/270/51 86/267/51
f 102/269/51 88/268/51 90/271/51
f 94/275/51 96/276/51 106/277/51
f 94/275/51 107/278/51 104/273/51
f 104/273/51 105/274/51 90/271/51
f 104/273/51 92/272/51 94/275/51
f 66/279/51 65/280/51 108/281/51
f 66/279/51 109/282/51 106/277/51
f 70/283/51 72/284/51 110/285/51
f 70/283/51 111/286/51 108/281/51
f 74/287/51 76/266/51 99/261/51
f 74/287/51 112/288/51 110/285/51
f 106/277/51 107/278/51 94/275/51
f 106/277/51 96/276/51 66/279/51
f 108/281/51 65/280/51 70/283/51
f 110/285/51 72/284/51 74/287/51
f 108/281/51 109/282/51 66/279/51
f 99/261/51 112/288/51 74/287/51
f 110/285/51 111/286/51 70/283/51
f 97/259/51 98/260/51 78/257/51
f 89/289/52 87/290/52 113/291/52
f 89/289/52 114/292/52 115/293/52
f 85/294/52 83/295/52 116/296/52
f 85/294/52 117/297/52 113/291/52
f 115/293/52 91/298/52 89/289/52
f 113/291/52 87/290/52 85/294/52
f 81/299/52 79/300/52 118/301/52
f 81/299/52 119/302/52 116/296/52
f 116/296/52 117/297/52 85/294/52
f 116/296/52 83/295/52 81/299/52
f 77/303/52 75/304/52 120/305/52
f 77/303/52 121/306/52 118/301/52
f 118/301/52 119/302/52 81/299/52
f 118/301/52 79/300/52 77/303/52
f 73/307/52 71/308/52 122/309/52
f 73/307/52 123/310/52 120/305/52
f 120/305/52 121/306/52 77/303/52
f 120/305/52 75/304/52 73/307/52
f 69/311/52 68/312/52 124/313/52
f 69/311/52 125/314/52 122/309/52
f 67/315/52 95/316/52 126/317/52
f 67/315/52 127/318/52 124/313/52
f 93/319/52 91/298/52 115/293/52
f 93/319/52 128/320/52 126/317/52
f 122/309/52 123/310/52 73/307/52
f 122/309/52 71/308/52 69/311/52
f 124/313/52 68/312/52 67/315/52
f 126/317/52 95/316/52 93/319/52
f 124/313/52 125/314/52 69/311/52
f 115/293/52 128/320/52 93/319/52
f 126/317/52 127/318/52 67/315/52
f 113/291/52 114/292/52 89/289/52
f 115/321/53 114/322/53 105/323/53
f 105/323/53 104/324/53 115/321/53
f 104/325/54 107/326/54 128/327/54
f 128/327/54 115/328/54 104/325/54
f 128/329/55 107/330/55 106/331/55
f 106/331/55 126/332/55 128/329/55
f 106/333/56 109/334/56 127/335/56
f 127/335/56 126/336/56 106/333/56
f 108/337/57 124/338/57 127/339/57
f 127/339/57 109/340/57 108/337/57
f 108/341/58 111/342/58 125/343/58
f 125/343/58 124/344/58 108/341/58
f 111/345/59 110/346/59 122/347/59
f 122/347/59 125/348/59 111/345/59
f 122/349/60 110/350/60 112/351/60
f 112/351/60 123/352/60 122/349/60
f 120/353/61 123/354/61 112/355/61
f 112/355/61 99/356/61 120/353/61
f 120/357/62 99/358/62 98/359/62
f 98/359/62 121/360/62 120/357/62
f 121/361/63 98/362/63 97/363/63
f 97/363/63 118/364/63 121/361/63
f 101/365/64 119/366/64 118/367/64
f 118/367/64 97/368/64 101/365/64
f 119/369/65 101/370/65 100/371/65
f 100/371/65 116/372/65 119/369/65
f 100/373/66 103/374/66 117/375/66
f 117/375/66 116/376/66 100/373/66
f 113/377/67 117/378/67 103/379/67
f 103/379/67 102/380/67 113/377/67
f 113/381/68 102/382/68 105/383/68
f 105/383/68 114/384/68 113/381/68
